<svg xmlns="http://www.w3.org/2000/svg" version="1.1" xmlns:xlink="http://www.w3.org/1999/xlink" xmlns:svgjs="http://svgjs.com/svgjs" width="520" height="560"><text x="20" y="17.1015625" font-size="25" svgjs:data="{&quot;leading&quot;:&quot;1.3&quot;}"><tspan dy="32.5" x="20" svgjs:data="{&quot;leading&quot;:&quot;1.3&quot;,&quot;newLined&quot;:true}">committer</tspan></text><defs><pattern x="0" y="0" patternUnits="objectBoundingBox" id="r0l0" width="1" height="1"><image width="100" height="100" href="https://avatars3.githubusercontent.com/frank-zsy?s=200"></image></pattern><pattern x="0" y="0" patternUnits="objectBoundingBox" id="r0l1" width="1" height="1"><image width="100" height="100" href="https://avatars3.githubusercontent.com/WuShaoling?s=200"></image></pattern><pattern x="0" y="0" patternUnits="objectBoundingBox" id="r0l2" width="1" height="1"><image width="100" height="100" href="https://avatars3.githubusercontent.com/GoodMeowing?s=200"></image></pattern><pattern x="0" y="0" patternUnits="objectBoundingBox" id="r0l3" width="1" height="1"><image width="100" height="100" href="https://avatars3.githubusercontent.com/heming6666?s=200"></image></pattern><pattern x="0" y="0" patternUnits="objectBoundingBox" id="r0l4" width="1" height="1"><image width="100" height="100" href="https://avatars3.githubusercontent.com/liwen-tj?s=200"></image></pattern><pattern x="0" y="0" patternUnits="objectBoundingBox" id="r1l0" width="1" height="1"><image width="100" height="100" href="https://avatars3.githubusercontent.com/frank-zsy?s=200"></image></pattern><pattern x="0" y="0" patternUnits="objectBoundingBox" id="r1l1" width="1" height="1"><image width="100" height="100" href="https://avatars3.githubusercontent.com/WuShaoling?s=200"></image></pattern><pattern x="0" y="0" patternUnits="objectBoundingBox" id="r1l2" width="1" height="1"><image width="100" height="100" href="https://avatars3.githubusercontent.com/GoodMeowing?s=200"></image></pattern></defs><a href="https://www.github.com/frank-zsy"><circle r="50" cx="70" cy="110" fill="url(#r0l0)"></circle></a><g transform="matrix(1,0,0,1,20,160)"><text x="50" y="17.1015625" font-size="14" text-anchor="middle" svgjs:data="{&quot;leading&quot;:&quot;1.3&quot;}"><tspan dy="18.2" x="50" svgjs:data="{&quot;leading&quot;:&quot;1.3&quot;,&quot;newLined&quot;:true}">frank-zsy</tspan></text></g><a href="https://www.github.com/WuShaoling"><circle r="50" cx="170" cy="110" fill="url(#r0l1)"></circle></a><g transform="matrix(1,0,0,1,120,160)"><text x="50" y="17.1015625" font-size="14" text-anchor="middle" svgjs:data="{&quot;leading&quot;:&quot;1.3&quot;}"><tspan dy="18.2" x="50" svgjs:data="{&quot;leading&quot;:&quot;1.3&quot;,&quot;newLined&quot;:true}">WuShaoling</tspan></text></g><a href="https://www.github.com/GoodMeowing"><circle r="50" cx="270" cy="110" fill="url(#r0l2)"></circle></a><g transform="matrix(1,0,0,1,220,160)"><text x="50" y="17.1015625" font-size="14" text-anchor="middle" svgjs:data="{&quot;leading&quot;:&quot;1.3&quot;}"><tspan dy="18.2" x="50" svgjs:data="{&quot;leading&quot;:&quot;1.3&quot;,&quot;newLined&quot;:true}">GoodMeowing</tspan></text></g><a href="https://www.github.com/heming6666"><circle r="50" cx="370" cy="110" fill="url(#r0l3)"></circle></a><g transform="matrix(1,0,0,1,320,160)"><text x="50" y="17.1015625" font-size="14" text-anchor="middle" svgjs:data="{&quot;leading&quot;:&quot;1.3&quot;}"><tspan dy="18.2" x="50" svgjs:data="{&quot;leading&quot;:&quot;1.3&quot;,&quot;newLined&quot;:true}">heming6666</tspan></text></g><a href="https://www.github.com/liwen-tj"><circle r="50" cx="470" cy="110" fill="url(#r0l4)"></circle></a><g transform="matrix(1,0,0,1,420,160)"><text x="50" y="17.1015625" font-size="14" text-anchor="middle" svgjs:data="{&quot;leading&quot;:&quot;1.3&quot;}"><tspan dy="18.2" x="50" svgjs:data="{&quot;leading&quot;:&quot;1.3&quot;,&quot;newLined&quot;:true}">liwen-tj</tspan></text></g><text x="20" y="207.1015625" font-size="25" svgjs:data="{&quot;leading&quot;:&quot;1.3&quot;}"><tspan dy="32.5" x="20" svgjs:data="{&quot;leading&quot;:&quot;1.3&quot;,&quot;newLined&quot;:true}">replier</tspan></text><a href="https://www.github.com/frank-zsy"><circle r="50" cx="70" cy="300" fill="url(#r1l0)"></circle></a><g transform="matrix(1,0,0,1,20,350)"><text x="50" y="17.1015625" font-size="14" text-anchor="middle" svgjs:data="{&quot;leading&quot;:&quot;1.3&quot;}"><tspan dy="18.2" x="50" svgjs:data="{&quot;leading&quot;:&quot;1.3&quot;,&quot;newLined&quot;:true}">frank-zsy</tspan></text></g><a href="https://www.github.com/WuShaoling"><circle r="50" cx="170" cy="300" fill="url(#r1l1)"></circle></a><g transform="matrix(1,0,0,1,120,350)"><text x="50" y="17.1015625" font-size="14" text-anchor="middle" svgjs:data="{&quot;leading&quot;:&quot;1.3&quot;}"><tspan dy="18.2" x="50" svgjs:data="{&quot;leading&quot;:&quot;1.3&quot;,&quot;newLined&quot;:true}">WuShaoling</tspan></text></g><a href="https://www.github.com/GoodMeowing"><circle r="50" cx="270" cy="300" fill="url(#r1l2)"></circle></a><g transform="matrix(1,0,0,1,220,350)"><text x="50" y="17.1015625" font-size="14" text-anchor="middle" svgjs:data="{&quot;leading&quot;:&quot;1.3&quot;}"><tspan dy="18.2" x="50" svgjs:data="{&quot;leading&quot;:&quot;1.3&quot;,&quot;newLined&quot;:true}">GoodMeowing</tspan></text></g></svg>